<?xml version="1.0" encoding="UTF-8"?>
<svg id="Layer_1" xmlns="http://www.w3.org/2000/svg" version="1.1" viewBox="0 0 395.4 192">
  <!-- Generator: Adobe Illustrator 29.4.0, SVG Export Plug-In . SVG Version: 2.1.0 Build 152)  -->
  <defs>
    <style>
      .st0 {
        fill: #001fff;
      }

      .st1 {
        fill: #210f61;
      }

      .st2 {
        fill: #fff;
      }
    </style>
  </defs>
  <rect class="st0" x="27.6" y="124" width="78.2" height="32.2"/>
  <g>
    <path class="st2" d="M38.6,147.7c-1.3-.7-2.3-1.7-3.1-3-.8-1.3-1.1-2.8-1.1-4.4s.4-3.1,1.1-4.4,1.8-2.3,3.1-3c1.3-.7,2.7-1.1,4.3-1.1s3,.4,4.3,1.1c1.3.7,2.3,1.7,3.1,3s1.1,2.8,1.1,4.4-.4,3.1-1.1,4.4c-.8,1.3-1.8,2.3-3.1,3-1.3.7-2.7,1.1-4.3,1.1s-3-.4-4.3-1.1ZM45.6,145.1c.8-.5,1.4-1.1,1.8-1.9.4-.8.6-1.8.6-2.9s-.2-2.1-.6-2.9c-.4-.8-1-1.5-1.8-1.9s-1.6-.7-2.6-.7-1.9.2-2.7.7c-.8.4-1.4,1.1-1.8,1.9-.4.8-.6,1.8-.6,2.9s.2,2.1.6,2.9c.4.8,1,1.5,1.8,1.9.8.5,1.7.7,2.7.7s1.9-.2,2.6-.7Z"/>
    <path class="st2" d="M66.4,139.6c-.4.8-1.1,1.4-2,1.9-.9.5-2,.7-3.4.7h-2.8v6.4h-3.3v-16.7h6.1c1.3,0,2.4.2,3.3.7.9.4,1.6,1.1,2,1.8.5.8.7,1.7.7,2.6s-.2,1.7-.6,2.5ZM62.9,138.9c.4-.4.7-1,.7-1.8,0-1.6-.9-2.4-2.7-2.4h-2.6v4.8h2.6c.9,0,1.6-.2,2.1-.6Z"/>
    <path class="st2" d="M73.7,134.7v4.2h5.6v2.6h-5.6v4.4h6.3v2.7h-9.7v-16.7h9.7v2.7h-6.3Z"/>
    <path class="st2" d="M98.2,148.6h-3.3l-7.6-11.4v11.4h-3.3v-16.7h3.3l7.6,11.5v-11.5h3.3v16.7Z"/>
  </g>
  <g>
    <path class="st1" d="M240.3,124.9v1.6h-2.1v6.6h-1.9v-6.6h-2.1v-1.6h6Z"/>
    <path class="st1" d="M246.1,131.6h-2.9l-.5,1.4h-2l2.8-8.2h2.2l2.8,8.2h-2l-.5-1.4ZM245.7,130.1l-1-3-1,3h1.9Z"/>
    <path class="st1" d="M251.4,131.5h2.5v1.5h-4.4v-8.2h1.9v6.6Z"/>
    <path class="st1" d="M259.3,133.1l-2.6-3.6v3.6h-1.9v-8.2h1.9v3.6l2.6-3.6h2.2l-3,4,3.1,4.2h-2.3Z"/>
    <path class="st1" d="M270.6,124.9v1.6h-2.1v6.6h-1.9v-6.6h-2.1v-1.6h6Z"/>
    <path class="st1" d="M273.2,132.6c-.6-.4-1.1-.9-1.5-1.5-.4-.6-.5-1.4-.5-2.2s.2-1.5.5-2.2.8-1.1,1.5-1.5c.6-.4,1.3-.5,2-.5s1.4.2,2,.5c.6.4,1.1.9,1.4,1.5.4.6.5,1.4.5,2.2s-.2,1.5-.5,2.2c-.4.6-.8,1.1-1.4,1.5-.6.4-1.3.5-2,.5s-1.4-.2-2-.5ZM276.7,130.7c.4-.4.6-1,.6-1.7s-.2-1.3-.6-1.7c-.4-.4-.9-.6-1.5-.6s-1.1.2-1.5.6c-.4.4-.6,1-.6,1.7s.2,1.3.6,1.7c.4.4.9.6,1.5.6s1.1-.2,1.5-.7Z"/>
    <path class="st1" d="M288.3,128.8c-.2.4-.5.7-1,1s-1,.4-1.6.4h-1.2v2.9h-1.9v-8.2h3.1c.6,0,1.2.1,1.6.3.4.2.8.5,1,.9.2.4.3.9.3,1.4s-.1.9-.3,1.3ZM286.4,128.3c.2-.2.3-.4.3-.8s0-.6-.3-.8c-.2-.2-.4-.3-.8-.3h-1v2.1h1c.4,0,.6,0,.8-.3Z"/>
    <path class="st1" d="M291.3,132.6c-.6-.4-1.1-.9-1.5-1.5-.4-.6-.5-1.4-.5-2.2s.2-1.5.5-2.2.8-1.1,1.5-1.5c.6-.4,1.3-.5,2-.5s1.4.2,2,.5c.6.4,1.1.9,1.4,1.5.4.6.5,1.4.5,2.2s-.2,1.5-.5,2.2c-.4.6-.8,1.1-1.4,1.5-.6.4-1.3.5-2,.5s-1.4-.2-2-.5ZM294.8,130.7c.4-.4.6-1,.6-1.7s-.2-1.3-.6-1.7c-.4-.4-.9-.6-1.5-.6s-1.1.2-1.5.6c-.4.4-.6,1-.6,1.7s.2,1.3.6,1.7c.4.4.9.6,1.5.6s1.1-.2,1.5-.7Z"/>
    <path class="st1" d="M309.1,124.9l-2,8.2h-2.3l-1.2-5.4-1.3,5.4h-2.3l-2-8.2h2l1.1,6,1.4-6h2.1l1.3,6,1.1-6h2.1Z"/>
    <path class="st1" d="M312,126.5v1.7h2.6v1.5h-2.6v1.8h2.9v1.6h-4.8v-8.2h4.8v1.6h-2.9Z"/>
    <path class="st1" d="M320.1,133.1l-1.6-3.1h-.5v3.1h-1.9v-8.2h3.2c.6,0,1.1.1,1.6.3s.8.5,1,.9c.2.4.3.8.3,1.3s-.1,1-.4,1.5c-.3.4-.7.7-1.3.9l1.8,3.2h-2.2ZM318,128.6h1.2c.3,0,.6,0,.8-.3.2-.2.3-.4.3-.8s0-.6-.3-.7c-.2-.2-.4-.3-.8-.3h-1.2v2Z"/>
    <path class="st1" d="M327,132.9c-.5-.2-.8-.5-1.1-.9-.3-.4-.4-.8-.4-1.4h2c0,.3.1.5.3.7s.4.2.7.2.5,0,.7-.2.2-.3.2-.6,0-.4-.2-.5-.3-.2-.5-.3-.5-.2-.8-.3c-.5-.2-.9-.3-1.2-.5s-.6-.4-.8-.7c-.2-.3-.3-.7-.3-1.2,0-.8.3-1.4.8-1.8.5-.4,1.2-.6,2.1-.6s1.6.2,2.1.6c.5.4.8,1,.8,1.8h-2.1c0-.3-.1-.5-.3-.6-.2-.2-.4-.2-.7-.2s-.4,0-.6.2c-.1.1-.2.3-.2.6s.1.5.4.6c.2.1.6.3,1.1.5.5.2.9.3,1.2.5s.6.4.8.7c.2.3.3.7.3,1.2s-.1.9-.3,1.3-.6.7-1,.9c-.4.2-.9.3-1.5.3s-1.1,0-1.5-.3Z"/>
    <path class="st1" d="M339.3,124.9l-2.7,5.5v2.7h-1.9v-2.7l-2.7-5.5h2.2l1.5,3.4,1.5-3.4h2.1Z"/>
    <path class="st1" d="M341.3,132.9c-.5-.2-.8-.5-1.1-.9-.3-.4-.4-.8-.4-1.4h2c0,.3.1.5.3.7s.4.2.7.2.5,0,.7-.2c.2-.1.2-.3.2-.6s0-.4-.2-.5-.3-.2-.5-.3-.5-.2-.8-.3c-.5-.2-.9-.3-1.2-.5s-.6-.4-.8-.7c-.2-.3-.3-.7-.3-1.2,0-.8.3-1.4.8-1.8.5-.4,1.2-.6,2.1-.6s1.6.2,2.1.6c.5.4.8,1,.8,1.8h-2.1c0-.3-.1-.5-.3-.6s-.4-.2-.7-.2-.4,0-.6.2c-.1.1-.2.3-.2.6s.1.5.4.6c.2.1.6.3,1.1.5.5.2.9.3,1.2.5.3.2.6.4.8.7s.3.7.3,1.2-.1.9-.3,1.3-.6.7-1,.9c-.4.2-.9.3-1.5.3s-1.1,0-1.5-.3Z"/>
    <path class="st1" d="M352.5,124.9v1.6h-2.1v6.6h-1.9v-6.6h-2.1v-1.6h6.1Z"/>
    <path class="st1" d="M355.4,126.5v1.7h2.6v1.5h-2.6v1.8h2.9v1.6h-4.8v-8.2h4.8v1.6h-2.9Z"/>
    <path class="st1" d="M368.4,124.9v8.2h-1.9v-4.9l-1.8,4.9h-1.5l-1.8-4.9v4.9h-1.9v-8.2h2.3l2.2,5.7,2.2-5.7h2.2Z"/>
  </g>
  <path class="st1" d="M32.8,63.2c3.1-5.4,7.3-9.6,12.7-12.7,5.4-3,11.4-4.5,18-4.5s14.6,2,20.5,6c5.9,4,9.9,9.5,12.3,16.6h-16.1c-1.6-3.3-3.8-5.8-6.7-7.5-2.9-1.7-6.2-2.5-10-2.5s-7.7.9-10.8,2.8c-3.2,1.9-5.6,4.6-7.4,8-1.8,3.5-2.6,7.5-2.6,12.2s.9,8.6,2.6,12.1c1.8,3.5,4.2,6.2,7.4,8.1,3.2,1.9,6.8,2.8,10.8,2.8s7.1-.8,10-2.5c2.9-1.7,5.1-4.2,6.7-7.5h16.1c-2.3,7.1-6.4,12.7-12.2,16.6-5.8,4-12.7,5.9-20.5,5.9s-12.7-1.5-18-4.5c-5.4-3-9.6-7.2-12.7-12.6-3.1-5.4-4.6-11.5-4.6-18.4s1.5-13,4.6-18.4Z"/>
  <path class="st1" d="M126.1,46.9v69.6h-14V46.9h14Z"/>
  <path class="st1" d="M219.8,46.9v69.6h-14v-45.3l-18.7,45.3h-10.6l-18.8-45.3v45.3h-14V46.9h15.9l22.2,51.8,22.1-51.8h15.8Z"/>
  <path class="st1" d="M368.4,116.5h-14l-31.6-47.8v47.8h-14V46.8h14l31.6,47.9v-47.9h14v69.7Z"/>
  <path class="st0" d="M290.9,70.3c-2.7-4.7-6.5-8.4-11.2-11-.9-.5-1.8-1-2.8-1.4v13.2c1.3,1.3,2.4,2.7,3.3,4.5,1.6,3,2.3,6.6,2.3,10.6s-.8,7.6-2.3,10.6c-1.6,3.1-3.7,5.4-6.5,7.1-2.8,1.6-6,2.5-9.6,2.5s-6.9-.8-9.6-2.5c-2.8-1.6-5-4-6.5-7.1-1.6-3.1-2.3-6.6-2.3-10.6s.8-7.6,2.3-10.6c.9-1.7,2-3.2,3.3-4.4v-13.2c-.9.4-1.8.8-2.7,1.3-4.7,2.7-8.5,6.3-11.2,11-2.8,4.7-4.2,10-4.2,15.9s1.4,11.3,4.2,16c2.8,4.7,6.5,8.4,11.2,11,4.7,2.7,9.9,4,15.6,4s10.8-1.3,15.6-4c4.7-2.7,8.5-6.3,11.2-11,2.7-4.7,4.1-10,4.1-16s-1.4-11.2-4.1-15.9Z"/>
  <rect class="st0" x="257.7" y="46.5" width="12.6" height="32.6"/>
</svg>