<?xml version="1.0" encoding="UTF-8"?>
<svg id="Layer_1" xmlns="http://www.w3.org/2000/svg" viewBox="0 0 1179.15 200">
<defs><style>.cls-1{fill:#05ce74;}.cls-1,.cls-2{stroke-width:0px;}.cls-2{fill:#002721;}</style></defs><rect class="cls-1" x="944.62" y="50.68" width="234.53" height="29.32"/><path class="cls-2" d="M33.7,125.75c4.66,30.41,18.36,43.01,47.12,43.01,21.1,0,34.25-8.77,34.25-23.01,0-15.62-10.14-23.56-44.66-34.79-45.75-15.34-61.37-30.14-61.37-58.08C9.04,21.92,35.34,0,72.6,0c18.36,0,34.25,5.21,47.12,15.34,13.15,10.14,21.37,23.84,24.38,40.82l-33.42,7.12c-5.75-21.64-18.08-32.05-38.08-32.05-17.81,0-29.59,8.49-29.59,21.64,0,5.75,2.74,10.41,8.22,14.52,5.48,3.84,15.89,8.22,30.96,13.15,49.31,16.44,67.12,33.97,67.12,64.93s-27.94,54.52-69.04,54.52c-46.3,0-73.97-23.56-80.27-67.4l33.7-6.85Z"/><path class="cls-2" d="M199.28,80v72.05c0,9.59,3.56,12.33,15.34,12.33h14.52v31.51h-17.53c-32.6,0-45.21-11.51-45.21-42.19V15.34h32.88v35.34h29.86v29.32h-29.86Z"/><path class="cls-2" d="M295.17,110.96c24.38-6.3,32.05-10.68,32.05-19.73,0-10.14-8.77-16.44-23.29-16.44-16.44,0-27.67,9.59-30.68,25.75l-30.96-6.58c2.47-14.25,9.04-25.75,20.27-34.25,11.23-8.77,25.21-13.15,41.37-13.15,35.07,0,56.99,20,56.99,52.6v96.71h-29.86v-12.6h-.55c-7.4,10.68-21.64,16.71-39.45,16.71-28.77,0-47.67-16.71-47.67-42.74,0-24.38,14.52-37.53,51.78-46.3ZM328.6,121.92h-.55c-3.01,5.21-9.86,9.04-25.21,13.42-20,5.21-27.67,10.68-27.67,19.73,0,10.96,7.12,16.44,21.37,16.44,18.9,0,32.05-10.14,32.05-24.66v-24.93Z"/><path class="cls-2" d="M415.58,80v72.05c0,9.59,3.56,12.33,15.34,12.33h14.52v31.51h-17.53c-32.6,0-45.21-11.51-45.21-42.19V15.34h32.88v35.34h29.86v29.32h-29.86Z"/><path class="cls-2" d="M466.15,50.68h31.51v12.88h.55c8.49-10.14,24.38-16.99,40-16.99,32.88,0,54.25,22.19,54.25,56.17v93.15h-32.88v-87.95c0-19.45-10.96-30.68-29.86-30.68s-30.69,12.05-30.69,30.68v87.95h-32.88V50.68Z"/><path class="cls-2" d="M675.82,46.57c40.27,0,67.12,30.69,67.12,75.07v11.23h-101.64c1.1,23.29,14.52,38.63,35.07,38.63,16.16,0,27.12-7.12,38.08-23.84l24.11,17.53c-13.15,23.01-34.52,34.79-62.19,34.79-40.27,0-68.22-30.96-68.22-76.71s28.22-76.71,67.67-76.71ZM710.34,108.77c-1.1-20.55-13.7-33.7-34.25-33.7-18.9,0-33.43,14.25-34.52,33.7h68.77Z"/><path class="cls-2" d="M738.75,50.68h29.32V15.34h32.88v35.34h51.61V15.34h32.88v35.34h29.86v29.32h-29.86v72.05c0,9.59,3.56,12.33,15.34,12.33h14.52v31.51h-17.53c-32.6,0-45.21-11.51-45.21-42.19v-73.7h-51.61v72.05c0,9.59,3.56,12.33,15.34,12.33h14.52v31.51h-17.53c-32.6,0-45.21-11.51-45.21-42.19v-73.7c-16.19,0-29.32-13.13-29.32-29.32Z"/></svg>